<svg xmlns="http://www.w3.org/2000/svg" viewBox="0 0 640 320" data-cartridge="shape-exchange-worldlines">
  <polyline id="worldline-0" fill="none" stroke="#d62828" stroke-width="4" points="295,215 325,185 337,173"></polyline>
  <polyline id="worldline-0-r1" fill="none" stroke="#d62828" stroke-width="4" points="343,167 355,155 355,125 325,95 313,83"></polyline>
  <polyline id="worldline-0-r2" fill="none" stroke="#d62828" stroke-width="4" points="307,77 295,65 295,35 295,5"></polyline>
  <polyline id="worldline-1" fill="none" stroke="#2a9d2a" stroke-width="4" points="325,215 313,203"></polyline>
  <polyline id="worldline-1-r1" fill="none" stroke="#2a9d2a" stroke-width="4" points="307,197 295,185 295,155 325,125 337,113"></polyline>
  <polyline id="worldline-1-r2" fill="none" stroke="#2a9d2a" stroke-width="4" points="343,107 355,95 355,65 325,35 325,5"></polyline>
  <polyline id="worldline-2" fill="none" stroke="#2828d6" stroke-width="4" points="355,215 355,185 325,155 313,143"></polyline>
  <polyline id="worldline-2-r1" fill="none" stroke="#2828d6" stroke-width="4" points="307,137 295,125 295,95 325,65 337,53"></polyline>
  <polyline id="worldline-2-r2" fill="none" stroke="#2828d6" stroke-width="4" points="343,47 355,35 355,5"></polyline>
  <polyline id="event-0" fill="none" stroke="#f0f0f0" stroke-width="4" stroke-dasharray="8 6" points="305,177 313,185 305,193 297,185 305,177"></polyline>
  <polyline id="event-1" fill="none" stroke="#f0f0f0" stroke-width="4" stroke-dasharray="8 6" points="335,147 343,155 335,163 327,155 335,147"></polyline>
  <polyline id="event-2" fill="none" stroke="#f0f0f0" stroke-width="4" stroke-dasharray="8 6" points="305,117 313,125 305,133 297,125 305,117"></polyline>
  <polyline id="event-3" fill="none" stroke="#f0f0f0" stroke-width="4" stroke-dasharray="8 6" points="335,87 343,95 335,103 327,95 335,87"></polyline>
  <polyline id="event-4" fill="none" stroke="#f0f0f0" stroke-width="4" stroke-dasharray="8 6" points="305,57 313,65 305,73 297,65 305,57"></polyline>
  <polyline id="event-5" fill="none" stroke="#f0f0f0" stroke-width="4" stroke-dasharray="8 6" points="335,27 343,35 335,43 327,35 335,27"></polyline>
</svg>