<svg xmlns="http://www.w3.org/2000/svg" viewBox="0 0 640 320" data-cartridge="shape-gc">
  <polyline id="ref-0-2" fill="none" stroke="#2828d6" stroke-width="4" points="6,8 18,8"></polyline>
  <polyline id="ref-2-4" fill="none" stroke="#2828d6" stroke-width="4" points="18,8 30,8"></polyline>
  <polyline id="ref-4-6" fill="none" stroke="#2828d6" stroke-width="4" points="30,8 42,16"></polyline>
  <polyline id="ref-1-3" fill="none" stroke="#2828d6" stroke-width="4" points="6,24 18,24"></polyline>
  <polyline id="ref-3-5" fill="none" stroke="#2828d6" stroke-width="4" points="18,24 30,24"></polyline>
  <polyline id="ref-5-6" fill="none" stroke="#2828d6" stroke-width="4" points="30,24 42,16"></polyline>
  <polyline id="ref-6-7" fill="none" stroke="#2828d6" stroke-width="4" points="42,16 54,16"></polyline>
  <polyline id="ref-8-9" fill="none" stroke="#2828d6" stroke-width="4" points="50,4 58,4"></polyline>
  <polyline id="ref-9-8" fill="none" stroke="#2828d6" stroke-width="4" points="58,4 50,4"></polyline>
  <polyline id="ref-10-11" fill="none" stroke="#2828d6" stroke-width="4" points="50,28 58,28"></polyline>
  <polyline id="ref-10-4" fill="none" stroke="#2828d6" stroke-width="4" points="50,28 30,8"></polyline>
  <polyline id="live-0" fill="none" stroke="#2a9d2a" stroke-width="4" points="4,6 8,6 8,10 4,10 4,6"></polyline>
  <polyline id="live-1" fill="none" stroke="#2a9d2a" stroke-width="4" points="4,22 8,22 8,26 4,26 4,22"></polyline>
  <polyline id="live-2" fill="none" stroke="#2a9d2a" stroke-width="4" points="16,6 20,6 20,10 16,10 16,6"></polyline>
  <polyline id="live-3" fill="none" stroke="#2a9d2a" stroke-width="4" points="16,22 20,22 20,26 16,26 16,22"></polyline>
  <polyline id="live-4" fill="none" stroke="#2a9d2a" stroke-width="4" points="28,6 32,6 32,10 28,10 28,6"></polyline>
  <polyline id="live-5" fill="none" stroke="#2a9d2a" stroke-width="4" points="28,22 32,22 32,26 28,26 28,22"></polyline>
  <polyline id="live-6" fill="none" stroke="#2a9d2a" stroke-width="4" points="40,14 44,14 44,18 40,18 40,14"></polyline>
  <polyline id="live-7" fill="none" stroke="#2a9d2a" stroke-width="4" points="52,14 56,14 56,18 52,18 52,14"></polyline>
  <polyline id="garbage-8" fill="none" stroke="#d62828" stroke-width="4" stroke-dasharray="8 6" points="48,2 52,2 52,6 48,6 48,2"></polyline>
  <polyline id="garbage-9" fill="none" stroke="#d62828" stroke-width="4" stroke-dasharray="8 6" points="56,2 60,2 60,6 56,6 56,2"></polyline>
  <polyline id="garbage-10" fill="none" stroke="#d62828" stroke-width="4" stroke-dasharray="8 6" points="48,26 52,26 52,30 48,30 48,26"></polyline>
  <polyline id="garbage-11" fill="none" stroke="#d62828" stroke-width="4" stroke-dasharray="8 6" points="56,26 60,26 60,30 56,30 56,26"></polyline>
</svg>