<svg xmlns="http://www.w3.org/2000/svg" viewBox="0 0 640 320" data-cartridge="shape-shadow-loop">
  <polyline id="loop" fill="none" stroke="#f0f0f0" stroke-width="4" points="565,165 563,181 557,195 547,207 533,217 515,223 495,225 471,223 445,217 417,207 387,195 356,181 325,165 294,149 263,135 233,123 205,113 179,107 155,105 135,107 117,113 103,123 93,135 87,149 85,165 87,181 93,195 103,207 117,217 135,223 155,225 179,223 205,217 233,207 263,195 294,181 325,165 356,149 387,135 417,123 445,113 471,107 495,105 515,107 533,113 547,123 557,135 563,149 565,165"></polyline>
  <polyline id="catch" fill="none" stroke="#d628d6" stroke-width="4" points="325,159 331,165 325,171 319,165 325,159"></polyline>
</svg>