<svg xmlns="http://www.w3.org/2000/svg" viewBox="0 0 640 320" data-cartridge="shape-braid">
  <polyline id="strand-0" fill="none" stroke="#d62828" stroke-width="4" points="205,5 325,35 373,47"></polyline>
  <polyline id="strand-0-r1" fill="none" stroke="#d62828" stroke-width="4" points="397,53 445,65 445,95 325,125 277,137"></polyline>
  <polyline id="strand-0-r2" fill="none" stroke="#d62828" stroke-width="4" points="253,143 205,155 205,185 205,215"></polyline>
  <polyline id="strand-1" fill="none" stroke="#2a9d2a" stroke-width="4" points="325,5 277,17"></polyline>
  <polyline id="strand-1-r1" fill="none" stroke="#2a9d2a" stroke-width="4" points="253,23 205,35 205,65 325,95 373,107"></polyline>
  <polyline id="strand-1-r2" fill="none" stroke="#2a9d2a" stroke-width="4" points="397,113 445,125 445,155 325,185 325,215"></polyline>
  <polyline id="strand-2" fill="none" stroke="#2828d6" stroke-width="4" points="445,5 445,35 325,65 277,77"></polyline>
  <polyline id="strand-2-r1" fill="none" stroke="#2828d6" stroke-width="4" points="253,83 205,95 205,125 325,155 373,167"></polyline>
  <polyline id="strand-2-r2" fill="none" stroke="#2828d6" stroke-width="4" points="397,173 445,185 445,215"></polyline>
</svg>